<svg xmlns="http://www.w3.org/2000/svg" viewBox="0 0 32 32">
  <defs>
    <linearGradient id="bg-gradient" x1="0%" y1="0%" x2="100%" y2="100%">
      <stop offset="0%" style="stop-color:#f97316"/>
      <stop offset="100%" style="stop-color:#fdba74"/>
    </linearGradient>
  </defs>
  <rect width="32" height="32" rx="8" fill="url(#bg-gradient)"/>
  <g transform="translate(4, 4)" stroke="white" stroke-width="1.5" stroke-linecap="round" stroke-linejoin="round" fill="none">
    <path d="M4 12s.5-4 2-5c1-1 2.5-.5 3 1c.5 1.5.5 2 .5 3c0 1.5-.5 2-2 3s-2.5 1.5-3 1c-.5-.5-.5-1.5-.5-3z"/>
    <path d="M20 12s-.5-4-2-5c-1-1-2.5-.5-3 1c-.5 1.5-.5 2-.5 3c0 1.5.5 2 2 3s2.5 1.5 3 1c.5-.5.5-1.5.5-3z"/>
    <path d="M8 7c0-1.5.5-3 2-4c1-.5 2 0 2 1.5s-.5 3-1 4c-.5 1-1.5 1.5-2.5 1c-1-.5-.5-1.5-.5-2.5z"/>
    <path d="M16 7c0-1.5-.5-3-2-4c-1-.5-2 0-2 1.5s.5 3 1 4c.5 1 1.5 1.5 2.5 1c1-.5.5-1.5.5-2.5z"/>
    <ellipse cx="12" cy="17" rx="5" ry="4"/>
  </g>
</svg>
